<svg xmlns="http://www.w3.org/2000/svg" width="1970.877" height="819.905" viewBox="0 0 1970.877 819.905">
  <g id="Group_31" data-name="Group 31" transform="translate(21 -3909.232)">
    <path id="Path_10" data-name="Path 10" d="M-621.251,3603.537s67.317-72.053,290.545-68.687,330.6,116.678,615.825,82.07,432.964,93.522,680.031,101.445,362.971-149.2,362.971-149.2l-2.1,744.973H-621.251Z" transform="translate(600.251 415)" fill="#f5d14a"/>
    <path id="Path_11" data-name="Path 11" d="M-621.251,3603.537s67.317-72.053,290.545-68.687,330.6,116.678,615.825,82.07,432.964,93.522,680.031,101.445,362.971-149.2,362.971-149.2l-2.1,744.973H-621.251Z" transform="translate(612.251 392)" fill="none" stroke="#707070" stroke-width="1"/>
    <path id="Path_15" data-name="Path 15" d="M-621.251,3603.537s67.317-72.053,290.545-68.687,330.6,116.678,615.825,82.07,432.964,93.522,680.031,101.445,362.971-149.2,362.971-149.2l-2.1,744.973H-621.251Z" transform="translate(621.251 375)" fill="none" stroke="#707070" stroke-width="1"/>
  </g>
</svg>
