<svg xmlns="http://www.w3.org/2000/svg" width="54" height="51" viewBox="0 0 54 51">
  <g id="Group_28" data-name="Group 28" transform="translate(-0.024 0.18)">
    <rect id="Rectangle_27" data-name="Rectangle 27" width="54" height="51" rx="7" transform="translate(0.024 -0.18)" fill="#285bac"/>
    <path id="Path_29" data-name="Path 29" d="M3102.426-298.956,3096.7-297.7s-3.071-2.691-6.277-1.955-5.545,3.434-4.538,8.334c-3.08-1.1-7.92.8-15.417-6.379a10.829,10.829,0,0,0,5.167,9.084l-6.747-1.056,6.346,5.935-7.009-1.065s5.615,5.488,10.614,7.033l-.253,0c-5.043.123-7.727-1.393-7.727-1.393s4.567,5.617,11.253,5.748,9.946-1.254,13.989-6.675,2.221-13.56,2.221-13.56Z" transform="translate(-3058.309 312.48)" fill="#eac541"/>
  </g>
</svg>
